<mxfile host="app.diagrams.net" modified="2024-06-19T21:25:19.643Z" agent="Mozilla/5.0 (Windows NT 10.0; Win64; x64) AppleWebKit/537.36 (KHTML, like Gecko) Chrome/126.0.0.0 Safari/537.36" etag="FMAcAwb6PL9cdDC0bWio" version="24.5.5" type="github">
  <diagram name="Page-1" id="l_9-RIlW9i13i7eaHmRu">
    <mxGraphModel dx="1277" dy="1035" grid="1" gridSize="10" guides="1" tooltips="1" connect="1" arrows="1" fold="1" page="1" pageScale="1" pageWidth="850" pageHeight="1100" math="0" shadow="0">
      <root>
        <mxCell id="0" />
        <mxCell id="1" parent="0" />
      </root>
    </mxGraphModel>
  </diagram>
</mxfile>
